STARTFONT 2.1
FONT -Adobe-Courier-Bold-O-Normal--18-180-75-75-M-110-iso10646-0400
SIZE 18 75 75
FONTBOUNDINGBOX 14 20 -1 -5
COMMENT $XConsortium: courBO18.bdf,v 1.11 95/01/26 18:00:27 gildea Exp $
COMMENT 
COMMENT +
COMMENT  Copyright 1984-1989, 1994 Adobe Systems Incorporated.
COMMENT  Copyright 1988, 1994 Digital Equipment Corporation.
COMMENT
COMMENT  Adobe is a trademark of Adobe Systems Incorporated which may be
COMMENT  registered in certain jurisdictions.
COMMENT  Permission to use these trademarks is hereby granted only in
COMMENT  association with the images described in this file.
COMMENT
COMMENT  Permission to use, copy, modify, distribute and sell this software
COMMENT  and its documentation for any purpose and without fee is hereby
COMMENT  granted, provided that the above copyright notices appear in all
COMMENT  copies and that both those copyright notices and this permission
COMMENT  notice appear in supporting documentation, and that the names of
COMMENT  Adobe Systems and Digital Equipment Corporation not be used in
COMMENT  advertising or publicity pertaining to distribution of the software
COMMENT  without specific, written prior permission.  Adobe Systems and
COMMENT  Digital Equipment Corporation make no representations about the
COMMENT  suitability of this software for any purpose.  It is provided "as
COMMENT  is" without express or implied warranty.
COMMENT -
STARTPROPERTIES 32
FOUNDRY "Adobe"
FAMILY_NAME "Courier"
WEIGHT_NAME "Bold"
SLANT "O"
SETWIDTH_NAME "Normal"
ADD_STYLE_NAME ""
PIXEL_SIZE 18
POINT_SIZE 180
RESOLUTION_X 75
RESOLUTION_Y 75
SPACING "M"
AVERAGE_WIDTH 110
CHARSET_REGISTRY "iso10646"
CHARSET_ENCODING "0400"
CAP_HEIGHT 11
X_HEIGHT 9
FONT_ASCENT 14
FONT_DESCENT 4
FACE_NAME "Courier Bold Oblique"
COPYRIGHT "Copyright (c) 1984, 1987 Adobe Systems Incorporated. All Rights Reserved. Copyright (c) 1988, 1991 Digital Equipment Corporation. All Rights Reserved."
NOTICE "No mark"
_DEC_DEVICE_FONTNAMES "PS=Courier-BoldOblique"

STARTCHAR space
ENCODING 32
SWIDTH 600 0
DWIDTH 11 0
BBX 0 0 0 0
BITMAP
ENDCHAR
STARTCHAR exclam
ENCODING 33
SWIDTH 600 0
DWIDTH 11 0
BBX 5 12 4 0
BITMAP
38
38
38
70
70
60
60
C0
C0
00
C0
C0
ENDCHAR
STARTCHAR quotedbl
ENCODING 34
SWIDTH 600 0
DWIDTH 11 0
BBX 7 6 3 6
BITMAP
66
66
66
CC
CC
88
ENDCHAR
STARTCHAR numbersign
ENCODING 35
SWIDTH 600 0
DWIDTH 11 0
BBX 12 12 0 0
BITMAP
0360
06C0
06C0
3FF0
7FE0
1B00
1B00
7FC0
FF80
3600
3600
6C00
ENDCHAR
STARTCHAR dollar
ENCODING 36
SWIDTH 600 0
DWIDTH 11 0
BBX 11 15 0 -2
BITMAP
0180
0180
07E0
1FE0
3860
3000
3C00
1F00
0780
0180
C380
FF00
FE00
1800
1800
ENDCHAR
STARTCHAR percent
ENCODING 37
SWIDTH 600 0
DWIDTH 11 0
BBX 10 12 1 0
BITMAP
0E00
1A00
3200
2400
39C0
0700
3800
E700
0D00
1900
1200
1C00
ENDCHAR
STARTCHAR ampersand
ENCODING 38
SWIDTH 600 0
DWIDTH 11 0
BBX 9 10 1 0
BITMAP
0F00
1F80
3180
3000
3000
7B80
CF00
CE00
FF00
7380
ENDCHAR
STARTCHAR quotesingle
ENCODING 39
SWIDTH 600 0
DWIDTH 11 0
BBX 4 6 5 6
BITMAP
30
30
60
60
C0
C0
ENDCHAR
STARTCHAR parenleft
ENCODING 40
SWIDTH 600 0
DWIDTH 11 0
BBX 7 15 4 -3
BITMAP
06
0C
18
30
60
60
C0
C0
C0
C0
C0
C0
C0
60
60
ENDCHAR
STARTCHAR parenright
ENCODING 41
SWIDTH 600 0
DWIDTH 11 0
BBX 6 15 1 -3
BITMAP
18
18
0C
0C
0C
0C
0C
0C
18
18
18
30
30
60
C0
ENDCHAR
STARTCHAR asterisk
ENCODING 42
SWIDTH 600 0
DWIDTH 11 0
BBX 8 8 2 4
BITMAP
0C
0C
7F
7F
1C
7E
E7
42
ENDCHAR
STARTCHAR plus
ENCODING 43
SWIDTH 600 0
DWIDTH 11 0
BBX 10 10 1 0
BITMAP
0600
0600
0C00
0C00
FFC0
FFC0
1800
1800
3000
3000
ENDCHAR
STARTCHAR comma
ENCODING 44
SWIDTH 600 0
DWIDTH 11 0
BBX 4 5 2 -3
BITMAP
30
70
60
C0
80
ENDCHAR
STARTCHAR minus
ENCODING 45
SWIDTH 600 0
DWIDTH 11 0
BBX 9 2 1 4
BITMAP
FF80
FF80
ENDCHAR
STARTCHAR period
ENCODING 46
SWIDTH 600 0
DWIDTH 11 0
BBX 2 2 4 0
BITMAP
C0
C0
ENDCHAR
STARTCHAR slash
ENCODING 47
SWIDTH 600 0
DWIDTH 11 0
BBX 14 16 -1 -3
BITMAP
000C
0018
0030
0060
0060
00C0
0180
0300
0300
0600
0C00
1800
1800
3000
6000
C000
ENDCHAR
STARTCHAR zero
ENCODING 48
SWIDTH 600 0
DWIDTH 11 0
BBX 8 12 2 0
BITMAP
1E
3F
63
63
C3
C3
C3
C3
C6
C6
FC
78
ENDCHAR
STARTCHAR one
ENCODING 49
SWIDTH 600 0
DWIDTH 11 0
BBX 8 12 1 0
BITMAP
03
3F
3E
06
06
0C
0C
0C
18
18
FF
FF
ENDCHAR
STARTCHAR two
ENCODING 50
SWIDTH 600 0
DWIDTH 11 0
BBX 10 12 1 0
BITMAP
0780
1FC0
30C0
30C0
01C0
0380
0700
1C00
3800
7000
FF00
FF00
ENDCHAR
STARTCHAR three
ENCODING 51
SWIDTH 600 0
DWIDTH 11 0
BBX 10 12 1 0
BITMAP
0780
1FC0
18C0
01C0
0380
1E00
1F00
0300
0300
C700
FE00
7C00
ENDCHAR
STARTCHAR four
ENCODING 52
SWIDTH 600 0
DWIDTH 11 0
BBX 9 12 1 0
BITMAP
0180
0380
0780
0D80
1B00
3300
6300
FF80
FF80
0600
1F00
1F00
ENDCHAR
STARTCHAR five
ENCODING 53
SWIDTH 600 0
DWIDTH 11 0
BBX 10 12 1 0
BITMAP
0FC0
0FC0
1800
1800
3F00
3F80
3180
0180
0380
C700
FE00
7C00
ENDCHAR
STARTCHAR six
ENCODING 54
SWIDTH 600 0
DWIDTH 11 0
BBX 10 12 1 0
BITMAP
03C0
0FC0
1C00
3000
6000
6F00
FF80
E180
C180
E380
7F00
3E00
ENDCHAR
STARTCHAR seven
ENCODING 55
SWIDTH 600 0
DWIDTH 11 0
BBX 9 12 3 0
BITMAP
7F80
FF80
C300
0600
0600
0C00
1800
1800
3000
3000
6000
6000
ENDCHAR
STARTCHAR eight
ENCODING 56
SWIDTH 600 0
DWIDTH 11 0
BBX 10 12 1 0
BITMAP
0780
1FC0
30C0
30C0
3180
1F00
3F00
6180
C180
C300
7F00
3C00
ENDCHAR
STARTCHAR nine
ENCODING 57
SWIDTH 600 0
DWIDTH 11 0
BBX 10 12 1 0
BITMAP
0780
1FC0
38C0
30C0
60C0
6180
7F80
3D80
0300
0700
FE00
F800
ENDCHAR
STARTCHAR colon
ENCODING 58
SWIDTH 600 0
DWIDTH 11 0
BBX 3 8 4 0
BITMAP
60
60
00
00
00
00
C0
C0
ENDCHAR
STARTCHAR semicolon
ENCODING 59
SWIDTH 600 0
DWIDTH 11 0
BBX 5 11 2 -3
BITMAP
18
18
00
00
00
00
30
70
60
C0
80
ENDCHAR
STARTCHAR less
ENCODING 60
SWIDTH 600 0
DWIDTH 11 0
BBX 11 9 1 1
BITMAP
01E0
0780
1E00
7800
E000
7800
1E00
0780
01C0
ENDCHAR
STARTCHAR equal
ENCODING 61
SWIDTH 600 0
DWIDTH 11 0
BBX 11 6 0 2
BITMAP
7FE0
7FE0
0000
0000
FFC0
FFC0
ENDCHAR
STARTCHAR greater
ENCODING 62
SWIDTH 600 0
DWIDTH 11 0
BBX 11 9 0 1
BITMAP
7000
3C00
0F00
03C0
00E0
03C0
0F00
3C00
F000
ENDCHAR
STARTCHAR question
ENCODING 63
SWIDTH 600 0
DWIDTH 11 0
BBX 7 11 4 0
BITMAP
7C
FE
C6
0E
3C
70
E0
C0
00
C0
C0
ENDCHAR
STARTCHAR at
ENCODING 64
SWIDTH 600 0
DWIDTH 11 0
BBX 10 13 1 -1
BITMAP
0780
1840
3040
61C0
6780
4D80
D980
DB00
DB00
CF80
C000
6300
3C00
ENDCHAR
STARTCHAR A
ENCODING 65
SWIDTH 600 0
DWIDTH 11 0
BBX 12 11 -1 0
BITMAP
0F80
0F80
0380
0780
0CC0
0CC0
1FC0
3FC0
30C0
F9F0
F9F0
ENDCHAR
STARTCHAR B
ENCODING 66
SWIDTH 600 0
DWIDTH 11 0
BBX 11 11 0 0
BITMAP
3FC0
3FE0
0C60
0C60
1FE0
1FC0
3060
3060
30E0
FFC0
FF80
ENDCHAR
STARTCHAR C
ENCODING 67
SWIDTH 600 0
DWIDTH 11 0
BBX 11 11 1 0
BITMAP
0F60
3FE0
70C0
60C0
C000
C000
C000
C000
E180
7F80
3E00
ENDCHAR
STARTCHAR D
ENCODING 68
SWIDTH 600 0
DWIDTH 11 0
BBX 11 11 0 0
BITMAP
3F80
3FC0
1860
1860
3060
3060
3060
60C0
61C0
FF80
FE00
ENDCHAR
STARTCHAR E
ENCODING 69
SWIDTH 600 0
DWIDTH 11 0
BBX 12 11 0 0
BITMAP
3FF0
3FF0
0C60
1B60
1F00
1F00
3300
30C0
30C0
FFC0
FFC0
ENDCHAR
STARTCHAR F
ENCODING 70
SWIDTH 600 0
DWIDTH 11 0
BBX 12 11 0 0
BITMAP
3FF0
3FF0
0C60
1B60
1F00
1F00
3300
3000
3000
FE00
FE00
ENDCHAR
STARTCHAR G
ENCODING 71
SWIDTH 600 0
DWIDTH 11 0
BBX 11 11 1 0
BITMAP
0F60
3FE0
70C0
60C0
C000
C000
C7C0
C7C0
E180
7F80
3E00
ENDCHAR
STARTCHAR H
ENCODING 72
SWIDTH 600 0
DWIDTH 11 0
BBX 12 11 0 0
BITMAP
3CF0
3CF0
1860
1860
3FC0
3FC0
30C0
6180
6180
F3C0
F3C0
ENDCHAR
STARTCHAR I
ENCODING 73
SWIDTH 600 0
DWIDTH 11 0
BBX 10 11 1 0
BITMAP
3FC0
3FC0
0600
0600
0C00
0C00
0C00
1800
1800
FF00
FF00
ENDCHAR
STARTCHAR J
ENCODING 74
SWIDTH 600 0
DWIDTH 11 0
BBX 12 11 0 0
BITMAP
07F0
07F0
00C0
00C0
0180
0180
6180
6300
C300
FE00
7C00
ENDCHAR
STARTCHAR K
ENCODING 75
SWIDTH 600 0
DWIDTH 11 0
BBX 12 11 0 0
BITMAP
3DF0
3DF0
18C0
1980
3300
3E00
3E00
6700
6380
F9E0
F9E0
ENDCHAR
STARTCHAR L
ENCODING 76
SWIDTH 600 0
DWIDTH 11 0
BBX 11 11 0 0
BITMAP
3F00
3F00
0C00
0C00
1800
1800
1860
3060
30C0
FFC0
FF80
ENDCHAR
STARTCHAR M
ENCODING 77
SWIDTH 600 0
DWIDTH 11 0
BBX 13 11 0 0
BITMAP
3838
3838
1870
38E0
3DE0
37E0
3760
66C0
60C0
FBE0
FBE0
ENDCHAR
STARTCHAR N
ENCODING 78
SWIDTH 600 0
DWIDTH 11 0
BBX 12 11 0 0
BITMAP
39F0
39F0
1C60
1C60
34C0
36C0
36C0
6380
6380
FB80
FB80
ENDCHAR
STARTCHAR O
ENCODING 79
SWIDTH 600 0
DWIDTH 11 0
BBX 10 11 1 0
BITMAP
0F00
3F80
71C0
60C0
C0C0
C0C0
C0C0
C180
E380
7F00
3C00
ENDCHAR
STARTCHAR P
ENCODING 80
SWIDTH 600 0
DWIDTH 11 0
BBX 11 11 0 0
BITMAP
3FC0
3FE0
1860
1860
30E0
3FC0
3F80
6000
6000
FC00
FC00
ENDCHAR
STARTCHAR Q
ENCODING 81
SWIDTH 600 0
DWIDTH 11 0
BBX 10 13 1 -2
BITMAP
0F00
3F80
71C0
60C0
C0C0
C0C0
C0C0
C180
E380
7F00
3C80
FF00
CE00
ENDCHAR
STARTCHAR R
ENCODING 82
SWIDTH 600 0
DWIDTH 11 0
BBX 12 11 0 0
BITMAP
3FC0
3FE0
1860
1860
30E0
3FC0
3F80
6380
61C0
FCF0
FCF0
ENDCHAR
STARTCHAR S
ENCODING 83
SWIDTH 600 0
DWIDTH 11 0
BBX 12 11 0 0
BITMAP
07B0
1FF0
3860
3860
1E00
0F80
03C0
60C0
61C0
FF80
EF00
ENDCHAR
STARTCHAR T
ENCODING 84
SWIDTH 600 0
DWIDTH 11 0
BBX 11 11 1 0
BITMAP
7FE0
7FE0
6660
C6C0
CCC0
0C00
0C00
1800
1800
7E00
7E00
ENDCHAR
STARTCHAR U
ENCODING 85
SWIDTH 600 0
DWIDTH 11 0
BBX 12 11 1 0
BITMAP
7DF0
7DF0
3060
6060
60C0
60C0
C0C0
C180
E380
7F00
3E00
ENDCHAR
STARTCHAR V
ENCODING 86
SWIDTH 600 0
DWIDTH 11 0
BBX 12 11 1 0
BITMAP
F9F0
F9F0
6060
60C0
3180
3180
3300
3600
1E00
1C00
1800
ENDCHAR
STARTCHAR W
ENCODING 87
SWIDTH 600 0
DWIDTH 11 0
BBX 12 11 1 0
BITMAP
F9F0
F9F0
6060
6C60
6CC0
DEC0
D6C0
F780
E780
E300
C300
ENDCHAR
STARTCHAR X
ENCODING 88
SWIDTH 600 0
DWIDTH 11 0
BBX 12 11 0 0
BITMAP
3CF0
3CF0
18C0
1980
0F00
0E00
1E00
3300
6180
F3C0
F3C0
ENDCHAR
STARTCHAR Y
ENCODING 89
SWIDTH 600 0
DWIDTH 11 0
BBX 10 11 2 0
BITMAP
F3C0
F3C0
6180
6300
3600
3C00
1800
3000
3000
FC00
FC00
ENDCHAR
STARTCHAR Z
ENCODING 90
SWIDTH 600 0
DWIDTH 11 0
BBX 10 11 1 0
BITMAP
3FC0
3FC0
6180
6300
0600
0C00
1800
3180
6180
FF00
FF00
ENDCHAR
STARTCHAR bracketleft
ENCODING 91
SWIDTH 600 0
DWIDTH 11 0
BBX 8 15 3 -3
BITMAP
0F
0F
18
18
18
30
30
30
60
60
60
C0
C0
F0
F0
ENDCHAR
STARTCHAR backslash
ENCODING 92
SWIDTH 600 0
DWIDTH 11 0
BBX 5 16 4 -3
BITMAP
C0
C0
C0
C0
60
60
60
60
30
30
30
30
18
18
18
18
ENDCHAR
STARTCHAR bracketright
ENCODING 93
SWIDTH 600 0
DWIDTH 11 0
BBX 8 15 1 -3
BITMAP
1F
1F
03
03
06
06
06
0C
0C
0C
18
18
18
F0
F0
ENDCHAR
STARTCHAR asciicircum
ENCODING 94
SWIDTH 600 0
DWIDTH 11 0
BBX 8 7 2 5
BITMAP
06
0E
1E
33
63
C3
C3
ENDCHAR
STARTCHAR underscore
ENCODING 95
SWIDTH 600 0
DWIDTH 11 0
BBX 11 2 0 -4
BITMAP
FFE0
FFE0
ENDCHAR
STARTCHAR grave
ENCODING 96
SWIDTH 600 0
DWIDTH 11 0
BBX 4 3 4 9
BITMAP
C0
60
30
ENDCHAR
STARTCHAR a
ENCODING 97
SWIDTH 600 0
DWIDTH 11 0
BBX 10 9 0 0
BITMAP
0F80
3FC0
30C0
00C0
3FC0
FF80
C180
FFC0
7DC0
ENDCHAR
STARTCHAR b
ENCODING 98
SWIDTH 600 0
DWIDTH 11 0
BBX 11 12 0 0
BITMAP
3800
3800
1800
3780
3FC0
38E0
3060
6060
6060
70C0
FFC0
EF00
ENDCHAR
STARTCHAR c
ENCODING 99
SWIDTH 600 0
DWIDTH 11 0
BBX 11 9 0 0
BITMAP
0F60
3FE0
70C0
60C0
C000
C000
E0C0
7FC0
3F00
ENDCHAR
STARTCHAR d
ENCODING 100
SWIDTH 600 0
DWIDTH 11 0
BBX 11 12 0 0
BITMAP
00E0
00E0
0060
0F60
3FC0
71C0
60C0
C0C0
C180
E380
7FC0
3DC0
ENDCHAR
STARTCHAR e
ENCODING 101
SWIDTH 600 0
DWIDTH 11 0
BBX 11 9 0 0
BITMAP
0F80
3FC0
70E0
6060
FFE0
FFE0
C000
7F80
3F80
ENDCHAR
STARTCHAR f
ENCODING 102
SWIDTH 600 0
DWIDTH 11 0
BBX 11 12 1 0
BITMAP
03E0
0FE0
0C00
7F80
7F80
1800
1800
3800
3000
3000
FE00
FE00
ENDCHAR
STARTCHAR g
ENCODING 103
SWIDTH 600 0
DWIDTH 11 0
BBX 12 13 0 -4
BITMAP
0F70
3FE0
71C0
60C0
C0C0
C1C0
E380
7F80
3D80
0300
0700
7E00
7C00
ENDCHAR
STARTCHAR h
ENCODING 104
SWIDTH 600 0
DWIDTH 11 0
BBX 10 12 0 0
BITMAP
3800
3800
1800
3780
3FC0
38C0
30C0
60C0
6180
6180
F3C0
F3C0
ENDCHAR
STARTCHAR i
ENCODING 105
SWIDTH 600 0
DWIDTH 11 0
BBX 8 12 1 0
BITMAP
06
06
00
3C
3C
0C
0C
0C
18
18
FF
FF
ENDCHAR
STARTCHAR j
ENCODING 106
SWIDTH 600 0
DWIDTH 11 0
BBX 10 16 0 -4
BITMAP
0180
0180
0000
3FC0
3FC0
0180
0180
0180
0300
0300
0300
0300
0600
0600
FC00
F800
ENDCHAR
STARTCHAR k
ENCODING 107
SWIDTH 600 0
DWIDTH 11 0
BBX 11 12 0 0
BITMAP
3800
3800
1800
19E0
33E0
3700
3E00
3C00
6E00
6700
E3C0
E3C0
ENDCHAR
STARTCHAR l
ENCODING 108
SWIDTH 600 0
DWIDTH 11 0
BBX 8 12 1 0
BITMAP
1E
1E
06
06
0C
0C
0C
18
18
18
FF
FF
ENDCHAR
STARTCHAR m
ENCODING 109
SWIDTH 600 0
DWIDTH 11 0
BBX 12 9 -1 0
BITMAP
7B60
7FF0
3BB0
3330
3330
6660
6660
F770
F770
ENDCHAR
STARTCHAR n
ENCODING 110
SWIDTH 600 0
DWIDTH 11 0
BBX 10 9 0 0
BITMAP
7B80
7FC0
38C0
30C0
30C0
6180
6180
F3C0
F3C0
ENDCHAR
STARTCHAR o
ENCODING 111
SWIDTH 600 0
DWIDTH 11 0
BBX 11 9 0 0
BITMAP
0F80
3FC0
70E0
6060
C060
C0C0
E1C0
7F80
3E00
ENDCHAR
STARTCHAR p
ENCODING 112
SWIDTH 600 0
DWIDTH 11 0
BBX 12 13 -1 -4
BITMAP
3DC0
3FE0
1C70
1830
1830
3030
3860
3FE0
3780
6000
6000
F800
F800
ENDCHAR
STARTCHAR q
ENCODING 113
SWIDTH 600 0
DWIDTH 11 0
BBX 12 13 0 -4
BITMAP
0F70
3FF0
71C0
60C0
C0C0
C180
E380
7F80
3D80
0300
0300
0F80
0F80
ENDCHAR
STARTCHAR r
ENCODING 114
SWIDTH 600 0
DWIDTH 11 0
BBX 11 9 0 0
BITMAP
7DC0
7FE0
1C60
1800
1800
3000
3000
FF00
FF00
ENDCHAR
STARTCHAR s
ENCODING 115
SWIDTH 600 0
DWIDTH 11 0
BBX 11 9 0 0
BITMAP
0F60
1FE0
30C0
3C00
1F00
6780
6180
FF80
DF00
ENDCHAR
STARTCHAR t
ENCODING 116
SWIDTH 600 0
DWIDTH 11 0
BBX 9 12 1 0
BITMAP
1800
1800
1800
FF80
FF80
3000
3000
6000
6180
6180
7F00
3E00
ENDCHAR
STARTCHAR u
ENCODING 117
SWIDTH 600 0
DWIDTH 11 0
BBX 9 9 1 0
BITMAP
E380
E380
6180
6180
C300
C300
C700
FF80
7B80
ENDCHAR
STARTCHAR v
ENCODING 118
SWIDTH 600 0
DWIDTH 11 0
BBX 11 9 1 0
BITMAP
F1E0
F1E0
60C0
6180
3300
3600
3E00
1C00
1800
ENDCHAR
STARTCHAR w
ENCODING 119
SWIDTH 600 0
DWIDTH 11 0
BBX 12 9 0 0
BITMAP
F8F0
F8F0
6660
6660
6EC0
3AC0
3BC0
3180
3180
ENDCHAR
STARTCHAR x
ENCODING 120
SWIDTH 600 0
DWIDTH 11 0
BBX 13 9 0 0
BITMAP
7CF8
7CF8
18E0
0D80
0700
0F00
3980
FBE0
FBE0
ENDCHAR
STARTCHAR y
ENCODING 121
SWIDTH 600 0
DWIDTH 11 0
BBX 12 13 0 -4
BITMAP
3CF0
3CF0
1860
0CC0
0D80
0700
0600
0600
0C00
1800
3000
F800
F800
ENDCHAR
STARTCHAR z
ENCODING 122
SWIDTH 600 0
DWIDTH 11 0
BBX 9 9 1 0
BITMAP
3F80
7F80
6700
0E00
1C00
3800
7180
FF80
FF00
ENDCHAR
STARTCHAR braceleft
ENCODING 123
SWIDTH 600 0
DWIDTH 11 0
BBX 7 15 3 -3
BITMAP
0E
18
18
30
30
30
C0
60
60
60
60
C0
C0
C0
70
ENDCHAR
STARTCHAR bar
ENCODING 124
SWIDTH 600 0
DWIDTH 11 0
BBX 6 16 3 -3
BITMAP
0C
0C
0C
18
18
18
30
30
30
60
60
60
60
C0
C0
C0
ENDCHAR
STARTCHAR braceright
ENCODING 125
SWIDTH 600 0
DWIDTH 11 0
BBX 7 15 1 -3
BITMAP
0C
06
06
06
0C
0C
06
0C
18
18
18
18
30
30
E0
ENDCHAR
STARTCHAR asciitilde
ENCODING 126
SWIDTH 600 0
DWIDTH 11 0
BBX 8 3 2 4
BITMAP
73
FF
DE
ENDCHAR
STARTCHAR space
ENCODING 160
SWIDTH 600 0
DWIDTH 11 0
BBX 0 0 0 0
BITMAP
ENDCHAR
STARTCHAR exclamdown
ENCODING 161
SWIDTH 600 0
DWIDTH 11 0
BBX 5 12 3 -4
BITMAP
18
18
00
30
30
30
70
70
60
E0
E0
E0
ENDCHAR
STARTCHAR cent
ENCODING 162
SWIDTH 600 0
DWIDTH 11 0
BBX 8 12 2 0
BITMAP
0C
0C
1F
7F
63
C0
C0
C3
FE
7C
30
30
ENDCHAR
STARTCHAR sterling
ENCODING 163
SWIDTH 600 0
DWIDTH 11 0
BBX 10 11 0 0
BITMAP
0F80
1FC0
18C0
1800
1800
7E00
7E00
3000
60C0
FFC0
FF80
ENDCHAR
STARTCHAR currency
ENCODING 164
SWIDTH 600 0
DWIDTH 11 0
BBX 10 9 1 1
BITMAP
30C0
3FC0
3F80
6180
6180
6180
7F00
FF00
C300
ENDCHAR
STARTCHAR yen
ENCODING 165
SWIDTH 600 0
DWIDTH 11 0
BBX 10 11 2 0
BITMAP
F3C0
F3C0
6180
6300
3600
7F00
1800
FE00
3000
FC00
FC00
ENDCHAR
STARTCHAR brokenbar
ENCODING 166
SWIDTH 600 0
DWIDTH 11 0
BBX 6 16 3 -3
BITMAP
0C
0C
0C
18
18
18
18
00
00
60
60
60
60
C0
C0
C0
ENDCHAR
STARTCHAR section
ENCODING 167
SWIDTH 600 0
DWIDTH 11 0
BBX 11 14 1 -2
BITMAP
07E0
0C60
18C0
1C00
3700
6380
71C0
38C0
1CC0
0F80
0700
C300
C600
F800
ENDCHAR
STARTCHAR dieresis
ENCODING 168
SWIDTH 600 0
DWIDTH 11 0
BBX 6 2 4 9
BITMAP
CC
CC
ENDCHAR
STARTCHAR copyright
ENCODING 169
SWIDTH 600 0
DWIDTH 11 0
BBX 12 12 0 0
BITMAP
0780
1FE0
3860
6730
6FB0
D9B0
D830
DF60
CE60
60C0
7F80
1E00
ENDCHAR
STARTCHAR ordfeminine
ENCODING 170
SWIDTH 600 0
DWIDTH 11 0
BBX 8 8 2 3
BITMAP
3E
03
3E
66
4C
76
00
FC
ENDCHAR
STARTCHAR guillemotleft
ENCODING 171
SWIDTH 600 0
DWIDTH 11 0
BBX 9 6 1 1
BITMAP
0880
3300
6600
EE00
6600
1100
ENDCHAR
STARTCHAR logicalnot
ENCODING 172
SWIDTH 600 0
DWIDTH 11 0
BBX 9 5 1 3
BITMAP
FF80
FF80
0300
0600
0600
ENDCHAR
STARTCHAR hyphen
ENCODING 173
SWIDTH 600 0
DWIDTH 11 0
BBX 9 2 2 4
BITMAP
FF80
FF80
ENDCHAR
STARTCHAR registered
ENCODING 174
SWIDTH 600 0
DWIDTH 11 0
BBX 12 12 0 0
BITMAP
0780
1FE0
3860
6F30
6DB0
CDB0
DE30
DB60
FB60
61C0
7F80
1E00
ENDCHAR
STARTCHAR macron
ENCODING 175
SWIDTH 600 0
DWIDTH 11 0
BBX 5 1 5 9
BITMAP
F8
ENDCHAR
STARTCHAR degree
ENCODING 176
SWIDTH 600 0
DWIDTH 11 0
BBX 6 6 3 6
BITMAP
38
4C
84
84
C8
70
ENDCHAR
STARTCHAR plusminus
ENCODING 177
SWIDTH 600 0
DWIDTH 11 0
BBX 11 10 0 0
BITMAP
0300
0300
7FE0
7FE0
0600
0C00
0C00
0000
FFC0
FFC0
ENDCHAR
STARTCHAR twosuperior
ENCODING 178
SWIDTH 600 0
DWIDTH 11 0
BBX 7 8 3 4
BITMAP
3C
66
06
0C
38
60
C4
FC
ENDCHAR
STARTCHAR threesuperior
ENCODING 179
SWIDTH 600 0
DWIDTH 11 0
BBX 7 8 2 4
BITMAP
3C
66
46
18
0C
8C
CC
78
ENDCHAR
STARTCHAR acute
ENCODING 180
SWIDTH 600 0
DWIDTH 11 0
BBX 4 3 7 9
BITMAP
30
60
C0
ENDCHAR
STARTCHAR mu
ENCODING 181
SWIDTH 600 0
DWIDTH 11 0
BBX 10 13 0 -4
BITMAP
71C0
71C0
30C0
30C0
6180
6180
6380
7FC0
FDC0
C000
C000
C000
C000
ENDCHAR
STARTCHAR paragraph
ENCODING 182
SWIDTH 600 0
DWIDTH 11 0
BBX 10 14 2 -2
BITMAP
1FC0
7680
C580
CD00
CB00
7A00
1A00
1A00
1600
3400
2C00
6C00
6800
FC00
ENDCHAR
STARTCHAR periodcentered
ENCODING 183
SWIDTH 600 0
DWIDTH 11 0
BBX 2 2 5 5
BITMAP
C0
C0
ENDCHAR
STARTCHAR cedilla
ENCODING 184
SWIDTH 600 0
DWIDTH 11 0
BBX 4 5 2 -5
BITMAP
20
70
30
30
E0
ENDCHAR
STARTCHAR onesuperior
ENCODING 185
SWIDTH 600 0
DWIDTH 11 0
BBX 6 8 3 4
BITMAP
18
78
18
10
10
30
30
FC
ENDCHAR
STARTCHAR ordmasculine
ENCODING 186
SWIDTH 600 0
DWIDTH 11 0
BBX 8 8 2 3
BITMAP
1E
33
63
63
66
3C
00
FC
ENDCHAR
STARTCHAR guillemotright
ENCODING 187
SWIDTH 600 0
DWIDTH 11 0
BBX 9 6 1 1
BITMAP
4400
3300
3B80
3300
6600
8800
ENDCHAR
STARTCHAR onequarter
ENCODING 188
SWIDTH 600 0
DWIDTH 11 0
BBX 12 12 -1 0
BITMAP
1C00
7830
1860
10C0
3180
3330
FE70
0CA0
1920
33F0
6060
C0F0
ENDCHAR
STARTCHAR onehalf
ENCODING 189
SWIDTH 600 0
DWIDTH 11 0
BBX 13 12 -1 0
BITMAP
1800
7818
1830
1060
30C0
3180
FBF0
06D8
0C18
1870
30C8
61F8
ENDCHAR
STARTCHAR threequarters
ENCODING 190
SWIDTH 600 0
DWIDTH 11 0
BBX 13 12 -1 0
BITMAP
3C00
6618
0630
1860
0CC0
CDB0
7B70
06A0
0D20
1BF0
3060
60F0
ENDCHAR
STARTCHAR questiondown
ENCODING 191
SWIDTH 600 0
DWIDTH 11 0
BBX 7 12 1 -4
BITMAP
06
06
00
06
06
0C
38
60
C0
C6
FE
7C
ENDCHAR
STARTCHAR Agrave
ENCODING 192
SWIDTH 600 0
DWIDTH 11 0
BBX 12 15 -1 0
BITMAP
0C00
0600
0300
0000
0F80
0F80
0380
0780
0480
0CC0
1FC0
3FC0
30C0
F9F0
F9F0
ENDCHAR
STARTCHAR Aacute
ENCODING 193
SWIDTH 600 0
DWIDTH 11 0
BBX 12 15 -1 0
BITMAP
00C0
0180
0300
0000
0F80
0F80
0380
0780
0480
0CC0
1FC0
3FC0
30C0
F9F0
F9F0
ENDCHAR
STARTCHAR Acircumflex
ENCODING 194
SWIDTH 600 0
DWIDTH 11 0
BBX 12 15 -1 0
BITMAP
0180
03C0
0660
0000
0F80
0F80
0380
0780
0480
0CC0
1FC0
3FC0
30C0
F9F0
F9F0
ENDCHAR
STARTCHAR Atilde
ENCODING 195
SWIDTH 600 0
DWIDTH 11 0
BBX 12 14 -1 0
BITMAP
0760
0DC0
0000
0F80
0F80
0380
0780
0480
0CC0
1FC0
3FC0
30C0
F9F0
F9F0
ENDCHAR
STARTCHAR Adieresis
ENCODING 196
SWIDTH 600 0
DWIDTH 11 0
BBX 12 14 -1 0
BITMAP
0660
0660
0000
0F80
0F80
0380
0780
0480
0CC0
1FC0
3FC0
30C0
F9F0
F9F0
ENDCHAR
STARTCHAR Aring
ENCODING 197
SWIDTH 600 0
DWIDTH 11 0
BBX 12 15 -1 0
BITMAP
01C0
0240
0240
0180
0F80
0F80
0380
0780
0480
0CC0
1FC0
3FC0
30C0
F9F0
F9F0
ENDCHAR
STARTCHAR AE
ENCODING 198
SWIDTH 600 0
DWIDTH 11 0
BBX 14 11 -1 0
BITMAP
07FC
07FC
03CC
06C0
05F0
0DF0
1F80
1F00
3330
FBF0
FBF0
ENDCHAR
STARTCHAR Ccedilla
ENCODING 199
SWIDTH 600 0
DWIDTH 11 0
BBX 11 15 1 -4
BITMAP
0F60
3FE0
70C0
60C0
C000
C000
C000
C000
E180
7F80
3E00
1000
3800
1800
7000
ENDCHAR
STARTCHAR Egrave
ENCODING 200
SWIDTH 600 0
DWIDTH 11 0
BBX 12 15 0 0
BITMAP
0C00
0600
0300
0000
3FF0
3FF0
0C60
1B60
1F60
1E00
3600
30C0
30C0
FFC0
FFC0
ENDCHAR
STARTCHAR Eacute
ENCODING 201
SWIDTH 600 0
DWIDTH 11 0
BBX 12 15 0 0
BITMAP
00C0
0180
0300
0000
3FF0
3FF0
0C60
1B60
1F60
1E00
3600
30C0
30C0
FFC0
FFC0
ENDCHAR
STARTCHAR Ecircumflex
ENCODING 202
SWIDTH 600 0
DWIDTH 11 0
BBX 12 15 0 0
BITMAP
0180
03C0
0660
0000
3FF0
3FF0
0C60
1B60
1F60
1E00
3600
30C0
30C0
FFC0
FFC0
ENDCHAR
STARTCHAR Edieresis
ENCODING 203
SWIDTH 600 0
DWIDTH 11 0
BBX 12 14 0 0
BITMAP
0CC0
0CC0
0000
3FF0
3FF0
0C60
1B60
1F60
1E00
3600
30C0
30C0
FFC0
FFC0
ENDCHAR
STARTCHAR Igrave
ENCODING 204
SWIDTH 600 0
DWIDTH 11 0
BBX 10 15 1 0
BITMAP
1800
0C00
0600
0000
3FC0
3FC0
0600
0600
0C00
0C00
0C00
1800
1800
FF00
FF00
ENDCHAR
STARTCHAR Iacute
ENCODING 205
SWIDTH 600 0
DWIDTH 11 0
BBX 10 15 1 0
BITMAP
0180
0300
0600
0000
3FC0
3FC0
0600
0600
0C00
0C00
0C00
1800
1800
FF00
FF00
ENDCHAR
STARTCHAR Icircumflex
ENCODING 206
SWIDTH 600 0
DWIDTH 11 0
BBX 10 15 1 0
BITMAP
0300
0780
0CC0
0000
3FC0
3FC0
0600
0600
0C00
0C00
0C00
1800
1800
FF00
FF00
ENDCHAR
STARTCHAR Idieresis
ENCODING 207
SWIDTH 600 0
DWIDTH 11 0
BBX 10 14 1 0
BITMAP
18C0
18C0
0000
3FC0
3FC0
0600
0600
0C00
0C00
0C00
1800
1800
FF00
FF00
ENDCHAR
STARTCHAR Eth
ENCODING 208
SWIDTH 600 0
DWIDTH 11 0
BBX 11 11 0 0
BITMAP
3F80
3FC0
1860
1860
7E60
7E60
3060
60C0
61C0
FF80
FE00
ENDCHAR
STARTCHAR Ntilde
ENCODING 209
SWIDTH 600 0
DWIDTH 11 0
BBX 12 14 0 0
BITMAP
0760
0DC0
0000
39F0
39F0
1C60
1C60
3460
36C0
36C0
66C0
6380
FB80
FB80
ENDCHAR
STARTCHAR Ograve
ENCODING 210
SWIDTH 600 0
DWIDTH 11 0
BBX 10 15 1 0
BITMAP
1800
0C00
0600
0000
0F00
3F80
71C0
60C0
C0C0
C0C0
C0C0
C180
E380
7F00
3C00
ENDCHAR
STARTCHAR Oacute
ENCODING 211
SWIDTH 600 0
DWIDTH 11 0
BBX 10 15 1 0
BITMAP
0180
0300
0600
0000
0F00
3F80
71C0
60C0
C0C0
C0C0
C0C0
C180
E380
7F00
3C00
ENDCHAR
STARTCHAR Ocircumflex
ENCODING 212
SWIDTH 600 0
DWIDTH 11 0
BBX 10 15 1 0
BITMAP
0600
0F00
1980
0000
0F00
3F80
71C0
60C0
C0C0
C0C0
C0C0
C180
E380
7F00
3C00
ENDCHAR
STARTCHAR Otilde
ENCODING 213
SWIDTH 600 0
DWIDTH 11 0
BBX 10 14 1 0
BITMAP
0EC0
1B80
0000
0F00
3F80
71C0
60C0
C0C0
C0C0
C0C0
C180
E380
7F00
3C00
ENDCHAR
STARTCHAR Odieresis
ENCODING 214
SWIDTH 600 0
DWIDTH 11 0
BBX 10 14 1 0
BITMAP
1980
1980
0000
0F00
3F80
71C0
60C0
C0C0
C0C0
C0C0
C180
E380
7F00
3C00
ENDCHAR
STARTCHAR multiply
ENCODING 215
SWIDTH 600 0
DWIDTH 11 0
BBX 11 10 0 0
BITMAP
2040
70E0
39C0
1F80
0F00
1E00
3F00
7380
E1C0
4080
ENDCHAR
STARTCHAR Oslash
ENCODING 216
SWIDTH 600 0
DWIDTH 11 0
BBX 14 13 -1 -1
BITMAP
000C
03D8
0FF0
1C70
18F0
31B0
3330
3630
3C60
38E0
3FC0
6F00
C000
ENDCHAR
STARTCHAR Ugrave
ENCODING 217
SWIDTH 600 0
DWIDTH 11 0
BBX 12 15 1 0
BITMAP
0C00
0600
0300
0000
7DF0
7DF0
3060
6060
60C0
60C0
C0C0
C180
E380
7F00
3E00
ENDCHAR
STARTCHAR Uacute
ENCODING 218
SWIDTH 600 0
DWIDTH 11 0
BBX 12 14 1 0
BITMAP
0180
0300
0000
7DF0
7DF0
3060
6060
60C0
60C0
C0C0
C180
E380
7F00
3E00
ENDCHAR
STARTCHAR Ucircumflex
ENCODING 219
SWIDTH 600 0
DWIDTH 11 0
BBX 12 15 1 0
BITMAP
0300
0780
0CC0
0000
7DF0
7DF0
3060
6060
60C0
60C0
C0C0
C180
E380
7F00
3E00
ENDCHAR
STARTCHAR Udieresis
ENCODING 220
SWIDTH 600 0
DWIDTH 11 0
BBX 12 14 1 0
BITMAP
0C60
0C60
0000
7DF0
7DF0
3060
6060
60C0
60C0
C0C0
C180
E380
7F00
3E00
ENDCHAR
STARTCHAR Yacute
ENCODING 221
SWIDTH 600 0
DWIDTH 11 0
BBX 10 15 2 0
BITMAP
0300
0600
0C00
0000
F3C0
F3C0
6180
6300
3600
3C00
1800
3800
3000
FC00
FC00
ENDCHAR
STARTCHAR Thorn
ENCODING 222
SWIDTH 600 0
DWIDTH 11 0
BBX 11 11 0 0
BITMAP
3E00
3C00
1FC0
1FE0
3060
3060
30E0
7FC0
7F80
F000
F800
ENDCHAR
STARTCHAR germandbls
ENCODING 223
SWIDTH 600 0
DWIDTH 11 0
BBX 10 12 0 0
BITMAP
0780
1FC0
18C0
18C0
3180
3380
31C0
30C0
60C0
6980
EF80
E700
ENDCHAR
STARTCHAR agrave
ENCODING 224
SWIDTH 600 0
DWIDTH 11 0
BBX 10 13 0 0
BITMAP
1800
0C00
0600
0000
0F80
3FC0
30C0
00C0
3FC0
FF80
C180
FFC0
7DC0
ENDCHAR
STARTCHAR aacute
ENCODING 225
SWIDTH 600 0
DWIDTH 11 0
BBX 10 13 0 0
BITMAP
00C0
0180
0300
0000
0F80
3FC0
30C0
00C0
3FC0
FF80
C180
FFC0
7DC0
ENDCHAR
STARTCHAR acircumflex
ENCODING 226
SWIDTH 600 0
DWIDTH 11 0
BBX 10 13 0 0
BITMAP
0300
0780
0CC0
0000
0F80
3FC0
30C0
00C0
3FC0
FF80
C180
FFC0
7DC0
ENDCHAR
STARTCHAR atilde
ENCODING 227
SWIDTH 600 0
DWIDTH 11 0
BBX 10 12 0 0
BITMAP
0EC0
1B80
0000
0F80
3FC0
30C0
00C0
3FC0
FF80
C180
FFC0
7DC0
ENDCHAR
STARTCHAR adieresis
ENCODING 228
SWIDTH 600 0
DWIDTH 11 0
BBX 10 12 0 0
BITMAP
0CC0
0CC0
0000
0F80
3FC0
30C0
00C0
3FC0
FF80
C180
FFC0
7DC0
ENDCHAR
STARTCHAR aring
ENCODING 229
SWIDTH 600 0
DWIDTH 11 0
BBX 10 14 0 0
BITMAP
0380
0480
0480
0700
0000
1F80
3FC0
30C0
00C0
3FC0
FF80
C180
FFC0
7DC0
ENDCHAR
STARTCHAR ae
ENCODING 230
SWIDTH 600 0
DWIDTH 11 0
BBX 11 9 0 0
BITMAP
3DC0
7FE0
6660
0660
3FE0
FFC0
CC00
FFC0
77C0
ENDCHAR
STARTCHAR ccedilla
ENCODING 231
SWIDTH 600 0
DWIDTH 11 0
BBX 11 13 0 -4
BITMAP
0F60
3FE0
70C0
60C0
C000
C000
E0C0
7FC0
3F00
0800
1C00
0C00
3800
ENDCHAR
STARTCHAR egrave
ENCODING 232
SWIDTH 600 0
DWIDTH 11 0
BBX 11 13 0 0
BITMAP
0C00
0600
0300
0000
0F80
3FC0
70E0
6060
FFE0
FFE0
C000
7F80
3F80
ENDCHAR
STARTCHAR eacute
ENCODING 233
SWIDTH 600 0
DWIDTH 11 0
BBX 11 13 0 0
BITMAP
00C0
0180
0300
0000
0F80
3FC0
70E0
6060
FFE0
FFE0
C000
7F80
3F80
ENDCHAR
STARTCHAR ecircumflex
ENCODING 234
SWIDTH 600 0
DWIDTH 11 0
BBX 11 13 0 0
BITMAP
0300
0780
0CC0
0000
0F80
3FC0
70E0
6060
FFE0
FFE0
C000
7F80
3F80
ENDCHAR
STARTCHAR edieresis
ENCODING 235
SWIDTH 600 0
DWIDTH 11 0
BBX 11 12 0 0
BITMAP
0CC0
0CC0
0000
0F80
3FC0
70E0
6060
FFE0
FFE0
C000
7F80
3F80
ENDCHAR
STARTCHAR igrave
ENCODING 236
SWIDTH 600 0
DWIDTH 11 0
BBX 8 13 1 0
BITMAP
30
18
0C
00
3C
3C
0C
0C
0C
18
18
FF
FF
ENDCHAR
STARTCHAR iacute
ENCODING 237
SWIDTH 600 0
DWIDTH 11 0
BBX 8 13 1 0
BITMAP
03
06
0C
00
3C
3C
0C
0C
0C
18
18
FF
FF
ENDCHAR
STARTCHAR icircumflex
ENCODING 238
SWIDTH 600 0
DWIDTH 11 0
BBX 8 13 1 0
BITMAP
0C
1E
33
00
3C
3C
0C
0C
0C
18
18
FF
FF
ENDCHAR
STARTCHAR idieresis
ENCODING 239
SWIDTH 600 0
DWIDTH 11 0
BBX 8 12 1 0
BITMAP
33
33
00
3C
3C
0C
0C
0C
18
18
FF
FF
ENDCHAR
STARTCHAR eth
ENCODING 240
SWIDTH 600 0
DWIDTH 11 0
BBX 11 13 0 0
BITMAP
3860
7FC0
0F80
39C0
60C0
1F60
7FE0
60E0
C060
C0C0
E1C0
7F80
3E00
ENDCHAR
STARTCHAR ntilde
ENCODING 241
SWIDTH 600 0
DWIDTH 11 0
BBX 11 12 0 0
BITMAP
0760
0DC0
0000
3B80
7FC0
38C0
30C0
30C0
6180
6180
F3C0
F3C0
ENDCHAR
STARTCHAR ograve
ENCODING 242
SWIDTH 600 0
DWIDTH 11 0
BBX 11 13 0 0
BITMAP
0C00
0600
0300
0000
0F80
3FC0
70E0
6060
C060
C0C0
E1C0
7F80
3E00
ENDCHAR
STARTCHAR oacute
ENCODING 243
SWIDTH 600 0
DWIDTH 11 0
BBX 11 13 0 0
BITMAP
00C0
0180
0300
0000
0F80
3FC0
70E0
6060
C060
C0C0
E1C0
7F80
3E00
ENDCHAR
STARTCHAR ocircumflex
ENCODING 244
SWIDTH 600 0
DWIDTH 11 0
BBX 11 13 0 0
BITMAP
0300
0780
0CC0
0000
0F80
3FC0
70E0
6060
C060
C0C0
E1C0
7F80
3E00
ENDCHAR
STARTCHAR otilde
ENCODING 245
SWIDTH 600 0
DWIDTH 11 0
BBX 11 12 0 0
BITMAP
0EC0
1B80
0000
0F80
3FC0
70E0
6060
C060
C0C0
E1C0
7F80
3E00
ENDCHAR
STARTCHAR odieresis
ENCODING 246
SWIDTH 600 0
DWIDTH 11 0
BBX 11 12 0 0
BITMAP
0CC0
0CC0
0000
0F80
3FC0
70E0
6060
C060
C0C0
E1C0
7F80
3E00
ENDCHAR
STARTCHAR divide
ENCODING 247
SWIDTH 600 0
DWIDTH 11 0
BBX 8 10 1 0
BITMAP
0C
0C
00
00
FF
FF
00
00
30
30
ENDCHAR
STARTCHAR oslash
ENCODING 248
SWIDTH 600 0
DWIDTH 11 0
BBX 12 11 -1 -1
BITMAP
0030
07E0
1FE0
39F0
3330
6630
6C60
78E0
3FC0
7F00
C000
ENDCHAR
STARTCHAR ugrave
ENCODING 249
SWIDTH 600 0
DWIDTH 11 0
BBX 9 13 1 0
BITMAP
3000
1800
0C00
0000
E380
E380
6180
6180
C300
C300
C700
FF80
7B80
ENDCHAR
STARTCHAR uacute
ENCODING 250
SWIDTH 600 0
DWIDTH 11 0
BBX 9 13 1 0
BITMAP
0300
0600
0C00
0000
E380
E380
6180
6180
C300
C300
C700
FF80
7B80
ENDCHAR
STARTCHAR ucircumflex
ENCODING 251
SWIDTH 600 0
DWIDTH 11 0
BBX 9 13 1 0
BITMAP
0C00
1E00
3300
0000
E380
E380
6180
6180
C300
C300
C700
FF80
7B80
ENDCHAR
STARTCHAR udieresis
ENCODING 252
SWIDTH 600 0
DWIDTH 11 0
BBX 9 12 1 0
BITMAP
3300
3300
0000
E380
E380
6180
6180
C300
C300
C700
FF80
7B80
ENDCHAR
STARTCHAR yacute
ENCODING 253
SWIDTH 600 0
DWIDTH 11 0
BBX 12 17 -1 -4
BITMAP
0060
00C0
0180
0000
3CF0
3CF0
1860
0CC0
0D80
0700
0600
0600
0C00
1800
3000
F800
F800
ENDCHAR
STARTCHAR thorn
ENCODING 254
SWIDTH 600 0
DWIDTH 11 0
BBX 12 16 -1 -4
BITMAP
1C00
1C00
0C00
1BC0
1FE0
1C70
1830
3030
3030
3860
3FE0
7780
6000
6000
F800
F800
ENDCHAR
STARTCHAR ydieresis
ENCODING 255
SWIDTH 600 0
DWIDTH 11 0
BBX 12 16 -1 -4
BITMAP
0CC0
0CC0
0000
3CF0
3CF0
1860
0CC0
0D80
0700
0600
0600
0C00
1800
3000
F800
F800
ENDCHAR
STARTCHAR uni0400
ENCODING 1024
SWIDTH 600 0
DWIDTH 11 0
BBX 12 15 0 0
BITMAP
0C00
0600
0300
0000
3FF0
3FF0
0C60
1B60
1F60
1E00
3600
30C0
30C0
FFC0
FFC0
ENDCHAR
STARTCHAR afii10023
ENCODING 1025
SWIDTH 600 0
DWIDTH 11 0
BBX 12 14 0 0
BITMAP
0CC0
0CC0
0000
3FF0
3FF0
0C60
1B60
1F00
1F00
3300
30C0
30C0
FFC0
FFC0
ENDCHAR
STARTCHAR afii10053
ENCODING 1028
SWIDTH 600 0
DWIDTH 11 0
BBX 11 11 1 0
BITMAP
0F60
3FE0
70C0
60C0
FC00
FC00
C000
C000
E180
7F80
3E00
ENDCHAR
STARTCHAR afii10054
ENCODING 1029
SWIDTH 600 0
DWIDTH 11 0
BBX 12 11 0 0
BITMAP
07B0
1FF0
3860
3860
1E00
0F80
03C0
60C0
61C0
FF80
EF00
ENDCHAR
STARTCHAR afii10055
ENCODING 1030
SWIDTH 600 0
DWIDTH 11 0
BBX 10 11 1 0
BITMAP
3FC0
3FC0
0600
0600
0C00
0C00
0C00
1800
1800
FF00
FF00
ENDCHAR
STARTCHAR afii10056
ENCODING 1031
SWIDTH 600 0
DWIDTH 11 0
BBX 10 14 1 0
BITMAP
18C0
18C0
0000
3FC0
3FC0
0600
0600
0C00
0C00
0C00
1800
1800
FF00
FF00
ENDCHAR
STARTCHAR afii10057
ENCODING 1032
SWIDTH 600 0
DWIDTH 11 0
BBX 12 11 0 0
BITMAP
07F0
07F0
00C0
00C0
0180
0180
6180
6300
C300
FE00
7C00
ENDCHAR
STARTCHAR afii10062
ENCODING 1038
SWIDTH 600 0
DWIDTH 11 0
BBX 12 15 1 0
BITMAP
0CC0
0FC0
0700
0000
F9F0
F9F0
6060
60C0
3180
3300
3600
1E00
DC00
F800
7000
ENDCHAR
STARTCHAR afii10017
ENCODING 1040
SWIDTH 600 0
DWIDTH 11 0
BBX 12 11 -1 0
BITMAP
0F80
0F80
0380
0780
0CC0
0CC0
1FC0
3FC0
30C0
F9F0
F9F0
ENDCHAR
STARTCHAR afii10018
ENCODING 1041
SWIDTH 600 0
DWIDTH 11 0
BBX 12 11 0 0
BITMAP
3FF0
3FF0
1860
1800
3F80
3FC0
60C0
60C0
61C0
FF80
FF00
ENDCHAR
STARTCHAR afii10019
ENCODING 1042
SWIDTH 600 0
DWIDTH 11 0
BBX 11 11 0 0
BITMAP
3FC0
3FE0
0C60
0C60
1FE0
1FC0
3060
3060
30E0
FFC0
FF80
ENDCHAR
STARTCHAR afii10020
ENCODING 1043
SWIDTH 600 0
DWIDTH 11 0
BBX 12 11 0 0
BITMAP
3FF0
3FF0
0C60
0C60
1800
1800
1800
3000
3000
FE00
FE00
ENDCHAR
STARTCHAR afii10021
ENCODING 1044
SWIDTH 600 0
DWIDTH 11 0
BBX 13 13 -1 -2
BITMAP
0FF8
0FF8
0630
0630
0C60
0C60
0C60
18C0
30C0
7FE0
7FE0
C0C0
C0C0
ENDCHAR
STARTCHAR afii10022
ENCODING 1045
SWIDTH 600 0
DWIDTH 11 0
BBX 12 11 0 0
BITMAP
3FF0
3FF0
0C60
1B60
1F00
1F00
3300
30C0
30C0
FFC0
FFC0
ENDCHAR
STARTCHAR afii10024
ENCODING 1046
SWIDTH 600 0
DWIDTH 11 0
BBX 14 11 0 0
BITMAP
3BDC
3BDC
19B8
1DB0
0FE0
0FC0
1FC0
36C0
76E0
EF70
EF70
ENDCHAR
STARTCHAR afii10025
ENCODING 1047
SWIDTH 600 0
DWIDTH 11 0
BBX 10 11 1 0
BITMAP
2F80
3FC0
70C0
60C0
0FC0
0F80
00C0
00C0
C1C0
FF80
7F00
ENDCHAR
STARTCHAR afii10026
ENCODING 1048
SWIDTH 600 0
DWIDTH 11 0
BBX 12 11 0 0
BITMAP
3C70
3CF0
19E0
1B60
33C0
36C0
3CC0
6D80
7980
F3C0
E3C0
ENDCHAR
STARTCHAR afii10027
ENCODING 1049
SWIDTH 600 0
DWIDTH 11 0
BBX 12 15 0 0
BITMAP
0660
07E0
0380
0000
3C70
3CF0
19E0
1B60
33C0
36C0
3CC0
6D80
7980
F3C0
E3C0
ENDCHAR
STARTCHAR afii10028
ENCODING 1050
SWIDTH 600 0
DWIDTH 11 0
BBX 12 11 0 0
BITMAP
3DF0
3DF0
18C0
1980
3300
3E00
3E00
6700
6380
F9E0
F9E0
ENDCHAR
STARTCHAR afii10029
ENCODING 1051
SWIDTH 600 0
DWIDTH 11 0
BBX 13 11 -1 0
BITMAP
0FF8
0FF8
0630
0630
0C60
0C60
0C60
18C0
D8C0
F9E0
71E0
ENDCHAR
STARTCHAR afii10030
ENCODING 1052
SWIDTH 600 0
DWIDTH 11 0
BBX 13 11 0 0
BITMAP
3838
3838
1870
38E0
3DE0
37E0
3760
66C0
60C0
FBE0
FBE0
ENDCHAR
STARTCHAR afii10031
ENCODING 1053
SWIDTH 600 0
DWIDTH 11 0
BBX 12 11 0 0
BITMAP
3CF0
3CF0
1860
1860
3FC0
3FC0
30C0
6180
6180
F3C0
F3C0
ENDCHAR
STARTCHAR afii10032
ENCODING 1054
SWIDTH 600 0
DWIDTH 11 0
BBX 10 11 1 0
BITMAP
0F00
3F80
71C0
60C0
C0C0
C0C0
C0C0
C180
E380
7F00
3C00
ENDCHAR
STARTCHAR afii10033
ENCODING 1055
SWIDTH 600 0
DWIDTH 11 0
BBX 12 11 0 0
BITMAP
3FF0
3FF0
1860
1860
30C0
30C0
30C0
6180
6180
F3C0
F3C0
ENDCHAR
STARTCHAR afii10034
ENCODING 1056
SWIDTH 600 0
DWIDTH 11 0
BBX 11 11 0 0
BITMAP
3FC0
3FE0
1860
1860
30E0
3FC0
3F80
6000
6000
FC00
FC00
ENDCHAR
STARTCHAR afii10035
ENCODING 1057
SWIDTH 600 0
DWIDTH 11 0
BBX 11 11 1 0
BITMAP
0F60
3FE0
70C0
60C0
C000
C000
C000
C000
E180
7F80
3E00
ENDCHAR
STARTCHAR afii10036
ENCODING 1058
SWIDTH 600 0
DWIDTH 11 0
BBX 11 11 1 0
BITMAP
7FE0
7FE0
6660
C6C0
CCC0
0C00
0C00
1800
1800
7E00
7E00
ENDCHAR
STARTCHAR afii10037
ENCODING 1059
SWIDTH 600 0
DWIDTH 11 0
BBX 12 11 1 0
BITMAP
F9F0
F9F0
6060
60C0
3180
3300
3600
1E00
DC00
F800
7000
ENDCHAR
STARTCHAR afii10038
ENCODING 1060
SWIDTH 600 0
DWIDTH 11 0
BBX 10 11 1 0
BITMAP
0F00
0600
3F80
7FC0
CCC0
CCC0
FF80
7F00
1800
3C00
3C00
ENDCHAR
STARTCHAR afii10039
ENCODING 1061
SWIDTH 600 0
DWIDTH 11 0
BBX 12 11 0 0
BITMAP
3CF0
3CF0
18C0
1980
0F00
0E00
1E00
3300
6180
F3C0
F3C0
ENDCHAR
STARTCHAR afii10040
ENCODING 1062
SWIDTH 600 0
DWIDTH 11 0
BBX 12 13 0 -2
BITMAP
3CF0
3CF0
1860
1860
30C0
30C0
30C0
6180
6180
FFC0
FFC0
0180
0180
ENDCHAR
STARTCHAR afii10041
ENCODING 1063
SWIDTH 600 0
DWIDTH 11 0
BBX 10 11 2 0
BITMAP
F3C0
F3C0
6180
C180
E300
7F00
3F00
0600
0600
0F00
0F00
ENDCHAR
STARTCHAR afii10042
ENCODING 1064
SWIDTH 600 0
DWIDTH 11 0
BBX 14 11 0 0
BITMAP
3DBC
3DBC
1998
1998
3330
3330
3330
6660
6660
FFF0
FFF0
ENDCHAR
STARTCHAR afii10043
ENCODING 1065
SWIDTH 600 0
DWIDTH 11 0
BBX 14 13 0 -2
BITMAP
3DBC
3DBC
1998
1998
3330
3330
3330
6660
6660
FFF0
FFF0
0060
0060
ENDCHAR
STARTCHAR afii10044
ENCODING 1066
SWIDTH 600 0
DWIDTH 11 0
BBX 10 11 1 0
BITMAP
7F00
7F00
CC00
CC00
1F80
1FC0
30C0
30C0
31C0
7F80
7F00
ENDCHAR
STARTCHAR afii10045
ENCODING 1067
SWIDTH 600 0
DWIDTH 11 0
BBX 14 11 0 0
BITMAP
3E3C
3E3C
1818
1818
3E30
3F30
6330
6360
6760
FEF0
FCF0
ENDCHAR
STARTCHAR afii10046
ENCODING 1068
SWIDTH 600 0
DWIDTH 11 0
BBX 10 11 0 0
BITMAP
3E00
3E00
1800
1800
3F80
3FC0
60C0
60C0
61C0
FF80
FF00
ENDCHAR
STARTCHAR afii10047
ENCODING 1069
SWIDTH 600 0
DWIDTH 11 0
BBX 10 11 1 0
BITMAP
3700
3F80
39C0
30C0
0FC0
0FC0
00C0
0180
C380
FF00
7C00
ENDCHAR
STARTCHAR afii10048
ENCODING 1070
SWIDTH 600 0
DWIDTH 11 0
BBX 13 11 -1 0
BITMAP
3CF0
3DF8
1B18
1B18
3E18
3E18
3618
6630
6630
F7E0
F3C0
ENDCHAR
STARTCHAR afii10049
ENCODING 1071
SWIDTH 600 0
DWIDTH 11 0
BBX 13 11 -1 0
BITMAP
07F8
0FF8
1C30
1830
1830
1FE0
0FE0
1CC0
38C0
F3E0
E3E0
ENDCHAR
STARTCHAR afii10065
ENCODING 1072
SWIDTH 600 0
DWIDTH 11 0
BBX 10 9 0 0
BITMAP
0F80
3FC0
30C0
00C0
3FC0
FF80
C180
FFC0
7DC0
ENDCHAR
STARTCHAR afii10066
ENCODING 1073
SWIDTH 600 0
DWIDTH 11 0
BBX 12 13 0 0
BITMAP
0030
03F0
0FC0
1C00
3780
3FC0
70E0
6060
C060
C0C0
E1C0
7F80
3E00
ENDCHAR
STARTCHAR afii10067
ENCODING 1074
SWIDTH 600 0
DWIDTH 11 0
BBX 9 9 1 0
BITMAP
7F00
7F80
3180
3F00
3F80
6180
6180
FF00
FE00
ENDCHAR
STARTCHAR afii10068
ENCODING 1075
SWIDTH 600 0
DWIDTH 11 0
BBX 10 9 1 0
BITMAP
7FC0
7FC0
18C0
18C0
1800
3000
3000
FE00
FE00
ENDCHAR
STARTCHAR afii10069
ENCODING 1076
SWIDTH 600 0
DWIDTH 11 0
BBX 12 11 -1 -2
BITMAP
1FF0
1FF0
0C60
0C60
18C0
18C0
30C0
7FE0
7FE0
C0C0
C0C0
ENDCHAR
STARTCHAR afii10070
ENCODING 1077
SWIDTH 600 0
DWIDTH 11 0
BBX 11 9 0 0
BITMAP
0F80
3FC0
70E0
6060
FFE0
FFE0
C000
7F80
3F80
ENDCHAR
STARTCHAR afii10072
ENCODING 1078
SWIDTH 600 0
DWIDTH 11 0
BBX 13 9 -1 0
BITMAP
77B8
77B8
3370
1B60
1FC0
3FC0
76E0
EF70
EF70
ENDCHAR
STARTCHAR afii10073
ENCODING 1079
SWIDTH 600 0
DWIDTH 11 0
BBX 8 9 1 0
BITMAP
5E
7F
63
1E
1F
03
C3
FE
7C
ENDCHAR
STARTCHAR afii10074
ENCODING 1080
SWIDTH 600 0
DWIDTH 11 0
BBX 11 9 0 0
BITMAP
79E0
7BE0
33C0
36C0
6EC0
6D80
7980
FBC0
F3C0
ENDCHAR
STARTCHAR afii10075
ENCODING 1081
SWIDTH 600 0
DWIDTH 11 0
BBX 11 13 0 0
BITMAP
0CC0
0FC0
0700
0000
79E0
7BE0
33C0
36C0
6EC0
6D80
7980
FBC0
F3C0
ENDCHAR
STARTCHAR afii10076
ENCODING 1082
SWIDTH 600 0
DWIDTH 11 0
BBX 10 9 0 0
BITMAP
79C0
7BC0
3700
3E00
3C00
6E00
6700
F3C0
F3C0
ENDCHAR
STARTCHAR afii10077
ENCODING 1083
SWIDTH 600 0
DWIDTH 11 0
BBX 12 9 -1 0
BITMAP
1FF0
1FF0
0C60
0C60
0C60
18C0
D8C0
F9E0
71E0
ENDCHAR
STARTCHAR afii10078
ENCODING 1084
SWIDTH 600 0
DWIDTH 11 0
BBX 12 9 0 0
BITMAP
7070
78F0
39E0
3DE0
3F60
66C0
64C0
F1E0
F1E0
ENDCHAR
STARTCHAR afii10079
ENCODING 1085
SWIDTH 600 0
DWIDTH 11 0
BBX 11 9 0 0
BITMAP
79E0
79E0
30C0
3FC0
3FC0
6180
6180
F3C0
F3C0
ENDCHAR
STARTCHAR afii10080
ENCODING 1086
SWIDTH 600 0
DWIDTH 11 0
BBX 11 9 0 0
BITMAP
0F80
3FC0
70E0
6060
C060
C0C0
E1C0
7F80
3E00
ENDCHAR
STARTCHAR afii10081
ENCODING 1087
SWIDTH 600 0
DWIDTH 11 0
BBX 11 9 0 0
BITMAP
7FE0
7FE0
30C0
30C0
30C0
6180
6180
F3C0
F3C0
ENDCHAR
STARTCHAR afii10082
ENCODING 1088
SWIDTH 600 0
DWIDTH 11 0
BBX 12 13 -1 -4
BITMAP
3DC0
3FE0
1C70
1830
1830
3030
3860
3FE0
3780
6000
6000
F800
F800
ENDCHAR
STARTCHAR afii10083
ENCODING 1089
SWIDTH 600 0
DWIDTH 11 0
BBX 11 9 0 0
BITMAP
0F60
3FE0
70C0
60C0
C000
C000
E0C0
7FC0
3F00
ENDCHAR
STARTCHAR afii10084
ENCODING 1090
SWIDTH 600 0
DWIDTH 11 0
BBX 10 9 1 0
BITMAP
FFC0
FFC0
CCC0
CCC0
0C00
1800
1800
7E00
7E00
ENDCHAR
STARTCHAR afii10085
ENCODING 1091
SWIDTH 600 0
DWIDTH 11 0
BBX 12 13 0 -4
BITMAP
3CF0
3CF0
1860
0CC0
0D80
0700
0600
0600
0C00
1800
3000
F800
F800
ENDCHAR
STARTCHAR afii10086
ENCODING 1092
SWIDTH 600 0
DWIDTH 11 0
BBX 13 16 0 -4
BITMAP
0380
0380
0180
0B60
3FF0
77B8
6318
C218
C630
EF70
7FE0
3680
0C00
0C00
1E00
1E00
ENDCHAR
STARTCHAR afii10087
ENCODING 1093
SWIDTH 600 0
DWIDTH 11 0
BBX 13 9 0 0
BITMAP
7CF8
7CF8
18E0
0D80
0700
0F00
3980
FBE0
FBE0
ENDCHAR
STARTCHAR afii10088
ENCODING 1094
SWIDTH 600 0
DWIDTH 11 0
BBX 11 11 0 -2
BITMAP
79E0
79E0
30C0
30C0
6180
6180
6180
FFC0
FFC0
0180
0180
ENDCHAR
STARTCHAR afii10089
ENCODING 1095
SWIDTH 600 0
DWIDTH 11 0
BBX 10 9 1 0
BITMAP
F3C0
F3C0
6180
6380
7F00
3F00
0300
0780
0780
ENDCHAR
STARTCHAR afii10090
ENCODING 1096
SWIDTH 600 0
DWIDTH 11 0
BBX 13 9 -1 0
BITMAP
7778
7778
3330
3330
6660
6660
6660
FFF0
FFF0
ENDCHAR
STARTCHAR afii10091
ENCODING 1097
SWIDTH 600 0
DWIDTH 11 0
BBX 13 11 -1 -2
BITMAP
7778
7778
3330
3330
6660
6660
6660
FFF0
FFF0
0060
0060
ENDCHAR
STARTCHAR afii10092
ENCODING 1098
SWIDTH 600 0
DWIDTH 11 0
BBX 9 9 1 0
BITMAP
7C00
7C00
D800
DF00
1F80
3180
3180
7F00
7E00
ENDCHAR
STARTCHAR afii10093
ENCODING 1099
SWIDTH 600 0
DWIDTH 11 0
BBX 12 9 0 0
BITMAP
78F0
78F0
3060
3C60
3EC0
66C0
66C0
FDE0
F9E0
ENDCHAR
STARTCHAR afii10094
ENCODING 1100
SWIDTH 600 0
DWIDTH 11 0
BBX 9 9 1 0
BITMAP
7800
7800
3000
3F00
3F80
6180
6180
FF00
FE00
ENDCHAR
STARTCHAR afii10095
ENCODING 1101
SWIDTH 600 0
DWIDTH 11 0
BBX 10 9 1 0
BITMAP
2F00
3F80
71C0
6FC0
0FC0
0180
C380
FF00
7C00
ENDCHAR
STARTCHAR afii10096
ENCODING 1102
SWIDTH 600 0
DWIDTH 11 0
BBX 13 9 -1 0
BITMAP
79E0
7BF0
3738
3E18
3C18
6C30
6E70
F7E0
F380
ENDCHAR
STARTCHAR afii10097
ENCODING 1103
SWIDTH 600 0
DWIDTH 11 0
BBX 11 9 0 0
BITMAP
0FE0
1FE0
30C0
30C0
3F80
1F80
3980
F3C0
E3C0
ENDCHAR
STARTCHAR uni0450
ENCODING 1104
SWIDTH 600 0
DWIDTH 11 0
BBX 11 13 0 0
BITMAP
0C00
0600
0300
0000
0F80
3FC0
70E0
6060
FFE0
FFE0
C000
7F80
3F80
ENDCHAR
STARTCHAR afii10071
ENCODING 1105
SWIDTH 600 0
DWIDTH 11 0
BBX 11 12 0 0
BITMAP
0CC0
0CC0
0000
0F80
3FC0
70E0
6060
FFE0
FFE0
C000
7F80
3F80
ENDCHAR
STARTCHAR afii10101
ENCODING 1108
SWIDTH 600 0
DWIDTH 11 0
BBX 11 9 0 0
BITMAP
0F60
3FE0
70C0
7CC0
FC00
C000
E0C0
7FC0
3F00
ENDCHAR
STARTCHAR afii10102
ENCODING 1109
SWIDTH 600 0
DWIDTH 11 0
BBX 11 9 0 0
BITMAP
0F60
1FE0
30C0
3C00
1F00
6780
6180
FF80
DF00
ENDCHAR
STARTCHAR afii10103
ENCODING 1110
SWIDTH 600 0
DWIDTH 11 0
BBX 8 12 1 0
BITMAP
06
06
00
3C
3C
0C
0C
0C
18
18
FF
FF
ENDCHAR
STARTCHAR afii10104
ENCODING 1111
SWIDTH 600 0
DWIDTH 11 0
BBX 8 12 1 0
BITMAP
33
33
00
3C
3C
0C
0C
0C
18
18
FF
FF
ENDCHAR
STARTCHAR afii10105
ENCODING 1112
SWIDTH 600 0
DWIDTH 11 0
BBX 10 16 0 -4
BITMAP
0180
0180
0000
3FC0
3FC0
0180
0180
0180
0300
0300
0300
0300
0600
0600
FC00
F800
ENDCHAR
STARTCHAR afii10110
ENCODING 1118
SWIDTH 600 0
DWIDTH 11 0
BBX 12 17 0 -4
BITMAP
0660
07E0
0380
0000
3CF0
3CF0
1860
0CC0
0D80
0700
0600
0600
0C00
1800
3000
F800
F800
ENDCHAR
STARTCHAR afii10050
ENCODING 1168
SWIDTH 600 0
DWIDTH 11 0
BBX 13 13 0 0
BITMAP
0018
0018
3FF0
3FF0
0C00
0C00
1800
1800
1800
3000
3000
FE00
FE00
ENDCHAR
STARTCHAR afii10098
ENCODING 1169
SWIDTH 600 0
DWIDTH 11 0
BBX 11 11 1 0
BITMAP
0060
0060
7FC0
7FC0
1800
1800
1800
3000
3000
FE00
FE00
ENDCHAR
STARTCHAR uni04AA
ENCODING 1194
SWIDTH 600 0
DWIDTH 11 0
BBX 11 15 1 -4
BITMAP
0F60
3FE0
70C0
60C0
C000
C000
C000
C000
E180
7F80
3E00
1000
3800
1800
7000
ENDCHAR
STARTCHAR uni04AB
ENCODING 1195
SWIDTH 600 0
DWIDTH 11 0
BBX 11 13 0 -4
BITMAP
0F60
3FE0
70C0
60C0
C000
C000
E0C0
7FC0
3F00
0800
1C00
0C00
3800
ENDCHAR
STARTCHAR uni04AE
ENCODING 1198
SWIDTH 600 0
DWIDTH 11 0
BBX 10 11 2 0
BITMAP
F3C0
F3C0
6180
6300
3600
3C00
1800
3000
3000
FC00
FC00
ENDCHAR
STARTCHAR uni04C0
ENCODING 1216
SWIDTH 600 0
DWIDTH 11 0
BBX 10 11 1 0
BITMAP
3FC0
3FC0
0600
0600
0C00
0C00
0C00
1800
1800
FF00
FF00
ENDCHAR
STARTCHAR uni04D2
ENCODING 1234
SWIDTH 600 0
DWIDTH 11 0
BBX 12 14 -1 0
BITMAP
0660
0660
0000
0F80
0F80
0380
0780
0480
0CC0
1FC0
3FC0
30C0
F9F0
F9F0
ENDCHAR
STARTCHAR uni04D3
ENCODING 1235
SWIDTH 600 0
DWIDTH 11 0
BBX 10 12 0 0
BITMAP
0CC0
0CC0
0000
0F80
3FC0
30C0
00C0
3FC0
FF80
C180
FFC0
7DC0
ENDCHAR
STARTCHAR uni04D4
ENCODING 1236
SWIDTH 600 0
DWIDTH 11 0
BBX 14 11 -1 0
BITMAP
07FC
07FC
03CC
06C0
05F0
0DF0
1F80
1F00
3330
FBF0
FBF0
ENDCHAR
STARTCHAR uni04D5
ENCODING 1237
SWIDTH 600 0
DWIDTH 11 0
BBX 11 9 0 0
BITMAP
3DC0
7FE0
6660
0660
3FE0
FFC0
CC00
FFC0
77C0
ENDCHAR
STARTCHAR uni04E6
ENCODING 1254
SWIDTH 600 0
DWIDTH 11 0
BBX 10 14 1 0
BITMAP
1980
1980
0000
0F00
3F80
71C0
60C0
C0C0
C0C0
C0C0
C180
E380
7F00
3C00
ENDCHAR
STARTCHAR uni04E7
ENCODING 1255
SWIDTH 600 0
DWIDTH 11 0
BBX 11 12 0 0
BITMAP
0CC0
0CC0
0000
0F80
3FC0
70E0
6060
C060
C0C0
E1C0
7F80
3E00
ENDCHAR
ENDFONT
